<svg version="1" xmlns="http://www.w3.org/2000/svg" width="2457.333" height="2457.333" viewBox="0 0 1843.000000 1843.000000"><path d="M881 175c-148.8 11.2-283.5 61-399 147.6C273.2 479.2 160.4 734.3 185.5 993c22 225.4 142.9 426.4 331.8 551.4 27.4 18.1 45.4 28.6 76.2 44.1 134 67.8 282 93.3 431 74.4 20.9-2.6 63.1-10 64-11.2.2-.2-23.5-110.1-23.8-110.3-.1-.1-6.7 1.1-14.7 2.7-161.9 31.8-331-2.1-470.5-94.6-126.9-84.1-218.6-209.4-260-355.5-35.2-123.9-31.8-254.3 9.7-375.8 69.9-204.8 237.9-359.9 446.3-412.1 48.7-12.2 92.3-17.9 144-18.8 63.3-1.1 118 5.6 177.1 21.8 49.9 13.6 107.4 37.9 151.9 63.9 150 88 254.4 226.8 296.5 394.3 2.6 10.3 5 19 5.3 19.4.4.3 25.2-4.8 55.2-11.3 47.2-10.2 54.5-12 54.5-13.6 0-2.8-6.6-29.8-11.6-47.1-44.9-156.8-138.3-292.6-268.9-390.7-39.3-29.6-78.2-53.3-123.5-75.4-81.5-39.7-165.2-63.2-257.5-72.2-19.5-1.9-98.1-2.8-117.5-1.4z"/><path d="M889 383.1C752.2 394.6 629.1 453.4 537.5 551 411.2 685.6 362 872.7 406.1 1051c24.3 98.5 73.8 185 146.5 256 123.6 120.7 295.9 174.8 466.4 146.5 22.1-3.7 25-4.4 25-6.3 0-1.5-23-108.4-23.4-108.9-.1-.1-6 .9-13.1 2.2-52.6 9.7-104.2 9.7-155.5-.1-164.6-31.2-296.3-155.4-336-316.9-16.8-68.3-16.8-135.9 0-204 25.6-104 91-196.1 180.7-254.9 57.1-37.3 119.7-59.5 191.8-67.8 14.7-1.7 69.5-1.7 84 0 54.6 6.4 101.3 20 147.6 43.3 113.5 56.8 196.1 161.1 224.5 283.1 1.3 5.6 2.2 7.8 3.3 7.8 2 0 108.5-23.1 109-23.6.3-.3-1.4-8.2-3.8-17.6-38.3-154.1-141.9-282.1-285.6-352.8-58.1-28.6-115.3-45.3-180.5-52.6-16.9-1.9-81.1-2.8-98-1.3z"/><path d="M906.5 598c-119.3 7.2-223.7 77.6-275 185.4-71.8 150.9-17.3 331.1 126.4 418C808.2 1231.9 866 1248 925 1248c114.3 0 218.7-58.6 278.1-156.1 52.9-86.7 62.2-193.4 25.2-287.4-35-88.8-107.5-158.3-197.5-189.3-39.3-13.6-83.3-19.7-124.3-17.2zm46 114.5c77.3 10.2 144.5 63.9 171.9 137.6 8.2 22.1 11.7 41 12.3 66.6.8 28.4-1.9 47-10.4 72.7-26.4 79.6-97.2 136.1-181.2 144.6-79.8 8-159.3-32.6-201.9-103.3-21.9-36.2-32.7-81.4-29.4-122.4 5.6-68.2 40.3-126.6 97.7-164.3 23.9-15.6 58.5-28 89-31.9 11.7-1.4 39.4-1.2 52 .4z"/><path d="M906 831.4c-35.8 8-62.7 34.2-71.7 70.2-2.6 10.4-2.3 34.3.5 44.8 2.8 10.2 9.7 24.5 15.5 32.2 5.3 7 15.4 16.7 22.1 21.4 7.1 4.8 20.3 10.8 29.1 13.1 12 3.2 30.3 3.7 42.5 1.1 35.2-7.3 62.6-33.3 71.7-68.1 3.1-11.9 3.5-31.2.9-42.8-8-36.1-36.3-64.4-71.8-71.7-9.2-1.9-30.6-2-38.8-.2z"/></svg>