<svg version="1" xmlns="http://www.w3.org/2000/svg" width="2457.333" height="2457.333" viewBox="0 0 1843.000000 1843.000000"><path d="M893 278.6c-91.6 6.5-170 27-247.5 64.9C456.9 435.7 324.7 615.8 292.6 824c-13.3 86.5-8.8 173.5 13.4 259.5 46.1 178.6 167.3 328.5 333 411.9 31.4 15.9 52.2 24.6 84.9 35.7 94 31.9 196.7 41.4 295.1 27.3 20.3-2.9 45.2-7.8 45.7-9 .4-1.1-19.2-93.2-20.1-94.1-.2-.2-6.4.7-13.7 2.1-38.3 7.2-59.4 9.1-102.9 9.1-39.1 0-53.8-1.1-84.5-6.1-141.7-23.2-266.8-98.9-352.7-213.5-34-45.3-62.7-100.6-80.9-156-13.5-41.2-22.4-86.4-25.9-131.8-1.3-17.3-1.3-58.8 0-76.2C401 661.2 548.3 472 757.9 403c111.4-36.7 230.7-36.8 341.1-.3 33.1 10.9 78 31.3 106.5 48.4 127.8 76.4 216 194 252 335.9 2.6 10.2 4.8 18.6 5 18.8.2.2 21.2-4.2 46.7-9.7 25.5-5.6 46.7-10.1 47.1-10.1 1.4 0 .6-4.6-4.4-24.4-23.7-93.7-67.4-178.9-130.8-255.1-14.2-17-53.1-56.5-69.6-70.6-95.9-81.9-209.1-134.1-328.8-151.4-32.7-4.7-46.3-5.6-86.2-6-20.9-.1-40.5-.1-43.5.1z"/><path d="M899 457.6c-32.3 2.8-55.3 6.4-81.5 12.9-71.6 17.6-135 50.2-191.2 98.2-6.5 5.5-19.7 18.1-29.3 28-35.4 36.1-63 75.1-85 119.8-27.5 55.9-43 114.3-47 177-6.9 108 26.4 219.5 91.5 306 25.6 34 59.8 68.1 94 93.7 45.5 34 98.3 60 154.4 75.7 66 18.7 140 21.8 209 9 6.8-1.3 12.5-2.8 12.8-3.5.4-1.2-19.2-93.2-20-94.1-.3-.2-5.4.5-11.3 1.6-20.5 3.9-33.9 5.2-57.9 5.8-45 1.1-80.7-4.2-123-18.2-127.5-42-221.4-149-246.4-280.5-4.6-24.5-5.6-36.3-5.6-67 0-31.1.8-41.1 5.1-65 6.4-35.1 15.9-63.7 31.9-96.5 18.3-37.3 40.3-68.2 69.5-97.6 53-53.3 116.9-87.3 191-101.8 60.6-11.8 122.8-7.9 182.2 11.5 41.4 13.5 81.7 35.3 116.3 63.1 14.3 11.4 39.2 35.8 51.4 50.3 35 41.7 60.8 92.1 74.1 145 1.7 6.9 3.3 12.6 3.5 12.8.1.2 21.1-4.2 46.6-9.7 25.5-5.6 46.7-10.1 47.2-10.1 1.4 0 .6-4.7-3.3-19.8-29.3-112.1-96.2-205.9-192.5-269.7-62.6-41.5-129.1-65.8-205.5-75.1-12.8-1.5-69.4-2.8-81-1.8z"/><path d="M894 644.1c-71.7 8.2-137.5 43.5-183.7 98.4-64.4 76.8-82.7 182.1-48.1 277.5 9 24.7 26.7 55.8 44.4 78 8.7 10.9 31.5 33.7 42.4 42.4 34.1 27.2 74.6 46.6 117 55.9 36.9 8.2 78.9 8.2 117.3.1 81.5-17.2 151.9-70.9 189.9-144.9 15.4-30.1 24.8-59.9 29.4-93.5 2.4-17.2 2.4-53.8 0-71-6.8-49.5-24.5-92.8-54.4-133-11.9-15.9-39-42.9-55.4-55.1-40.7-30.2-85.5-48.3-134.8-54.4-13.6-1.6-50.8-1.9-64-.4zm59.5 98.4c58.7 10.4 108.1 46.6 134 98.5 12.5 24.9 18.2 47 19.2 74.7 1.5 39.5-8.7 75.2-31.2 108.8-29.2 43.5-75.5 72.1-128.1 79-93.4 12.2-182.5-52-201.3-145.1-7.9-39.1-3-77.9 14.5-114.4 27.5-57.3 80.9-95.1 145.4-103 10.4-1.2 36.7-.4 47.5 1.5z"/><path d="M912.5 843.1c-25.9 3.8-49.3 21.2-60.5 45-9.8 21.1-9.9 47.7 0 68.6 7.6 16.4 20.4 29.5 36.6 37.7 12.3 6.1 20.9 8 36.4 8 15.6 0 22-1.4 34.6-7.4 20.6-9.9 36.2-28.2 42.4-50 3.1-10.7 3.7-27.2 1.6-38.1-8.5-42.3-48.1-70-91.1-63.8z"/></svg>