<?xml version="1.0" standalone="no"?>
<!DOCTYPE svg PUBLIC "-//W3C//DTD SVG 20010904//EN"
 "http://www.w3.org/TR/2001/REC-SVG-20010904/DTD/svg10.dtd">
<svg version="1.0" xmlns="http://www.w3.org/2000/svg"
 width="900.000000pt" height="900.000000pt" viewBox="0 0 900.000000 900.000000"
 preserveAspectRatio="xMidYMid meet">
<metadata>
Created by potrace 1.11, written by Peter Selinger 2001-2013
</metadata>
<g transform="translate(0.000000,900.000000) scale(0.100000,-0.100000)"
fill="#000000" stroke="none">
<path d="M4896 8589 c-965 -65 -1849 -458 -2540 -1129 -699 -679 -1126 -1580
-1206 -2553 -18 -211 -8 -656 19 -853 42 -308 122 -625 226 -901 109 -286 305
-655 482 -903 548 -770 1354 -1326 2268 -1565 307 -81 583 -118 885 -119 215
-1 227 0 267 22 60 32 112 87 140 150 22 48 25 64 21 140 -5 106 -26 150 -98
215 -68 62 -114 74 -300 81 -765 31 -1446 283 -2035 752 -141 113 -406 378
-519 519 -414 520 -660 1116 -737 1790 -17 142 -17 539 -1 680 91 793 412
1478 951 2029 259 263 514 459 809 619 480 260 967 393 1528 416 169 7 184 9
237 35 67 33 130 100 151 163 9 26 16 79 16 118 0 123 -68 229 -179 278 -55
24 -186 30 -385 16z"/>
<path d="M4907 7350 c-976 -95 -1821 -676 -2247 -1545 -168 -343 -254 -666
-281 -1055 -35 -512 89 -1067 339 -1515 438 -786 1208 -1309 2092 -1419 169
-21 382 -25 441 -8 72 21 139 78 176 151 28 54 33 73 33 135 0 40 -7 93 -16
119 -21 61 -84 132 -148 164 -46 24 -67 27 -211 35 -396 20 -722 117 -1044
310 -288 174 -564 450 -741 742 -379 628 -411 1413 -84 2068 316 633 888 1058
1594 1184 161 29 551 27 711 -4 702 -133 1274 -563 1579 -1187 139 -284 203
-532 219 -859 7 -143 11 -170 33 -217 50 -108 141 -169 262 -177 128 -8 238
54 293 166 28 56 28 59 27 227 -5 510 -177 1042 -482 1485 -174 254 -428 512
-673 687 -368 261 -777 426 -1224 494 -148 23 -504 33 -648 19z"/>
<path d="M4915 6105 c-643 -104 -1148 -594 -1277 -1238 -32 -160 -32 -435 1
-587 66 -311 204 -572 414 -784 240 -241 506 -381 842 -444 139 -25 408 -23
552 6 314 63 572 201 798 427 224 223 357 467 427 782 30 134 32 461 5 598
-127 624 -589 1092 -1209 1227 -125 26 -424 34 -553 13z m455 -626 c182 -42
377 -164 500 -311 69 -84 161 -260 185 -358 125 -496 -170 -997 -664 -1131
-98 -27 -276 -36 -377 -20 -343 56 -625 297 -740 633 -51 151 -57 361 -15 523
47 178 168 363 315 481 231 185 511 249 796 183z"/>
<path d="M5087 4836 c-67 -18 -126 -62 -162 -121 -27 -44 -30 -56 -30 -134 0
-98 14 -137 72 -194 48 -48 97 -70 168 -75 119 -8 207 40 259 142 107 208 -83
444 -307 382z"/>
</g>
</svg>
